<?xml version="1.0" encoding="UTF-8"?>
<svg xmlns="http://www.w3.org/2000/svg" xmlns:xlink="http://www.w3.org/1999/xlink" width="24px" height="24px" viewBox="0 0 64 64" version="1.1">
    <title>radiotower</title>
    <g id="radiotower">
        <circle fill="#4CAF50" r="32" cx="32" cy="32"></circle>
        <!-- <circle fill="#2196F3" r="28" cx="32" cy="32"></circle> -->
        <path d="M33.621 23.621a2.291 2.291 0 0 0 0-3.242 2.291 2.291 0 0 0-3.242 0 2.291 2.291 0 0 0 0 3.242 2.291 2.291 0 0 0 3.242 0" id="Fill-4" fill="#FFF" />
        <path d="M35.889 28.01a1.496 1.496 0 0 0 2.121 0A8.44 8.44 0 0 0 40.5 22a8.44 8.44 0 0 0-2.49-6.01 1.5 1.5 0 1 0-2.121 2.121A5.464 5.464 0 0 1 37.5 22c0 1.469-.572 2.85-1.611 3.889a1.5 1.5 0 0 0 0 2.121" id="Fill-5" fill="#FFF" />
        <path d="M40.939 30.839c.293.293.677.439 1.061.439.384 0 .768-.146 1.061-.439 4.874-4.874 4.874-12.804 0-17.678a1.5 1.5 0 0 0-2.122 2.121c3.705 3.704 3.705 9.732 0 13.436a1.501 1.501 0 0 0 0 2.121" id="Fill-6" fill="#FFF" />
        <path d="M28.111 15.99a1.5 1.5 0 0 0-2.121 0A8.44 8.44 0 0 0 23.5 22a8.44 8.44 0 0 0 2.49 6.01 1.496 1.496 0 0 0 2.121 0 1.5 1.5 0 0 0 0-2.121A5.464 5.464 0 0 1 26.5 22c0-1.469.572-2.85 1.611-3.889a1.5 1.5 0 0 0 0-2.121" id="Fill-7" fill="#FFF" />
        <path d="M20.94 13.161c-4.875 4.874-4.875 12.804 0 17.678.292.293.676.439 1.06.439s.768-.146 1.061-.439a1.501 1.501 0 0 0 0-2.121c-3.705-3.704-3.705-9.732 0-13.436a1.5 1.5 0 1 0-2.121-2.121" id="Fill-8" fill="#FFF" />
        <path d="M32 32.523L33.423 36h-2.846L32 32.523zM28.122 42l1.228-3h5.3l1.228 3h-7.756zm-6.69 12.389a1.5 1.5 0 0 0 1.956-.821l3.511-8.578c.034.002.066.01.101.01h10c.035 0 .067-.008.101-.01l3.511 8.578a1.502 1.502 0 0 0 1.956.821 1.5 1.5 0 0 0 .82-1.957l-10-24.437a1.499 1.499 0 0 0-2.776 0l-10 24.437a1.5 1.5 0 0 0 .82 1.957z" id="Fill-9" fill="#FFF" />
    </g>
</svg>